<svg width="56" height="56" viewBox="0 0 56 56" fill="none" xmlns="http://www.w3.org/2000/svg">
<g clip-path="url(#clip0_143_1486)">
<path d="M29.1667 21.0003C33.033 21.0003 36.1667 24.134 36.1667 28.0003C36.1667 31.8666 33.033 35.0003 29.1667 35.0003H17.5C17.5 35.0003 19.8333 21.0003 29.1667 21.0003ZM40.054 23.9076L54.348 9.61363C56.5483 7.41563 56.553 3.85029 54.355 1.64996C52.1593 -0.548041 48.5987 -0.550374 46.4007 1.64529C46.326 1.71996 46.2537 1.79696 46.1837 1.87629L32.5127 16.882C35.9917 17.932 38.78 20.5313 40.054 23.9076ZM29.1667 39.667H11.991L12.8963 34.2326C13.8997 28.2103 17.8453 18.4383 26.376 16.6486L37.2563 4.66696H7C3.14067 4.66696 0 7.80763 0 11.667V46.667H25.6667V51.3336H15.1667V56.0003H40.8333V51.3336H30.3333V46.667H56V14.5603L40.6397 29.9206C39.7157 35.4366 34.9417 39.667 29.1667 39.667Z" fill="black"/>
</g>
<defs>
<clipPath id="clip0_143_1486">
<rect width="56" height="56" fill="white"/>
</clipPath>
</defs>
</svg>
