<svg width="50" height="50" viewBox="0 0 50 50" fill="none" xmlns="http://www.w3.org/2000/svg">
<path d="M25 27.1664L8.33333 22.4039V6.2497C8.33353 5.28246 8.55822 4.32846 8.98972 3.4628C9.42122 2.59714 10.0477 1.84344 10.82 1.26103C11.5922 0.678618 12.4891 0.283389 13.44 0.106452C14.3909 -0.0704851 15.37 -0.0243013 16.3 0.241368L18.2271 0.624701C19.5618 0.980451 20.7432 1.76392 21.5902 2.85512C22.4372 3.94632 22.9031 5.28509 22.9167 6.66637V22.2289L25 22.8247L27.0833 22.2289V6.66637C27.09 5.31068 27.5352 3.99355 28.3523 2.91175C29.1694 1.82994 30.3145 1.04153 31.6167 0.664285L33.8562 0.208035C34.7654 -0.0378552 35.719 -0.0702721 36.6427 0.113315C37.5665 0.296903 38.4352 0.691526 39.1812 1.26637C39.9554 1.84567 40.5834 2.59802 41.0149 3.46329C41.4465 4.32857 41.6697 5.28278 41.6667 6.2497V22.4018L25 27.1664ZM50 41.6664V12.4997C49.9947 11.2117 49.5915 9.95672 48.8456 8.90658C48.0998 7.85644 47.0477 7.06238 45.8333 6.63304V25.5476L25 31.4997L4.16667 25.5476V6.63304C2.95227 7.06238 1.90019 7.85644 1.15435 8.90658C0.408508 9.95672 0.00533951 11.2117 0 12.4997L0 41.6664H22.9167V45.833H14.5833V49.9997H35.4167V45.833H27.0833V41.6664H50Z" fill="black"/>
</svg>
