<svg width="52" height="52" viewBox="0 0 52 52" fill="none" xmlns="http://www.w3.org/2000/svg">
<g clip-path="url(#clip0_143_1488)">
<path d="M45.5006 26C45.5 27.1954 45.3912 28.3884 45.1756 29.5642L51.7688 33.3667L45.2688 44.6333L38.6734 40.8222C36.8524 42.3802 34.7599 43.5891 32.5006 44.3885V52H19.5006V44.3885C17.2413 43.5891 15.1487 42.3802 13.3278 40.8222L6.73242 44.6333L0.232422 33.3667L6.82559 29.5642C6.39249 27.2078 6.39249 24.7922 6.82559 22.4358L0.232422 18.6333L6.73242 7.36666L13.3278 11.1757C15.1489 9.61844 17.2415 8.41021 19.5006 7.6115V-1.90735e-06H32.5006V7.6115C34.7599 8.41086 36.8524 9.61984 38.6734 11.1778L45.2688 7.36666L51.7688 18.6333L45.1756 22.4358C45.3912 23.6116 45.5 24.8046 45.5006 26ZM32.5006 26C32.5006 24.7144 32.1194 23.4577 31.4051 22.3888C30.6909 21.3199 29.6758 20.4868 28.488 19.9948C27.3003 19.5028 25.9934 19.3741 24.7325 19.6249C23.4716 19.8757 22.3134 20.4948 21.4044 21.4038C20.4954 22.3128 19.8763 23.471 19.6255 24.7319C19.3747 25.9928 19.5034 27.2997 19.9954 28.4874C20.4873 29.6752 21.3205 30.6903 22.3894 31.4046C23.4583 32.1188 24.715 32.5 26.0006 32.5C27.7245 32.5 29.3778 31.8152 30.5968 30.5962C31.8158 29.3772 32.5006 27.7239 32.5006 26Z" fill="black"/>
</g>
<defs>
<clipPath id="clip0_143_1488">
<rect width="52" height="52" fill="white" transform="matrix(1 0 0 -1 0 52)"/>
</clipPath>
</defs>
</svg>
