<svg width="66" height="66" viewBox="0 0 66 66" fill="none" xmlns="http://www.w3.org/2000/svg">
<g clip-path="url(#clip0_143_1484)">
<path d="M15.125 30.25C9.8175 30.25 5.5 25.9325 5.5 20.625C5.5 15.3175 9.8175 11 15.125 11C20.4325 11 24.75 15.3175 24.75 20.625C24.75 25.9325 20.4325 30.25 15.125 30.25ZM49.5 33C40.3865 33 33 40.3865 33 49.5C33 58.6135 40.3865 66 49.5 66C58.6135 66 66 58.6135 66 49.5C66 40.3865 58.6135 33 49.5 33ZM51.2022 56.1385C50.1627 57.178 48.7822 57.75 47.3137 57.75H47.3082C45.8397 57.75 44.4592 57.1753 43.4225 56.1358L37.8895 50.6027L41.778 46.7142L47.3137 52.25L57.255 42.3088L61.1435 46.1972L51.2022 56.1385ZM42.625 19.25C37.3175 19.25 33 14.9325 33 9.625C33 4.3175 37.3175 0 42.625 0C47.9325 0 52.25 4.3175 52.25 9.625C52.25 14.9325 47.9325 19.25 42.625 19.25ZM33.759 34.133C37.7547 30.041 43.329 27.5 49.5 27.5C52.3848 27.5 55.1402 28.0555 57.6647 29.0648C57.0872 25.0745 53.647 22 49.5 22H35.75C31.7267 22 28.369 24.8957 27.6458 28.7127C30.1895 29.8622 32.3208 31.7652 33.759 34.133ZM22 33H8.25C3.7015 33 0 36.7015 0 41.25V49.5H27.5C27.5 45.8123 28.4075 42.339 30.0108 39.2865C29.128 35.684 25.872 33 22 33Z" fill="black"/>
</g>
<defs>
<clipPath id="clip0_143_1484">
<rect width="66" height="66" fill="white"/>
</clipPath>
</defs>
</svg>
